<?xml version="1.0" encoding="utf-8"?>
<!-- Generator: Adobe Illustrator 23.0.2, SVG Export Plug-In . SVG Version: 6.00 Build 0)  -->
<svg version="1.1" id="Layer_1" xmlns="http://www.w3.org/2000/svg" xmlns:xlink="http://www.w3.org/1999/xlink" x="0px" y="0px"
	 viewBox="0 0 1920 1080" style="enable-background:new 0 0 1920 1080;" xml:space="preserve">
<style type="text/css">
	.st0{fill:none;}
	.st1{fill:none;stroke:#231F20;stroke-width:3.6;}
	.st2{fill:#ED6C0C;}
	.st3{opacity:0.9;}
	.st4{fill:#3C1FE8;}
	.st5{fill:url(#SVGID_1_);}
	.st6{fill:url(#SVGID_2_);}
	.st7{fill:url(#SVGID_3_);}
	.st8{fill:url(#SVGID_4_);}
	.st9{fill:url(#SVGID_5_);}
</style>
<pattern  width="72" height="72" patternUnits="userSpaceOnUse" id="_x36__lpi_30_x25_" viewBox="72.25 -72 72 72" style="overflow:visible;">
	<g>
		<rect x="72.25" y="-72" class="st0" width="72" height="72"/>
		<g>
			<line class="st1" x1="144" y1="-6" x2="216.5" y2="-6"/>
			<line class="st1" x1="144" y1="-30" x2="216.5" y2="-30"/>
			<line class="st1" x1="144" y1="-54" x2="216.5" y2="-54"/>
			<line class="st1" x1="144" y1="-18" x2="216.5" y2="-18"/>
			<line class="st1" x1="144" y1="-42" x2="216.5" y2="-42"/>
			<line class="st1" x1="144" y1="-66" x2="216.5" y2="-66"/>
		</g>
		<g>
			<line class="st1" x1="72" y1="-6" x2="144.5" y2="-6"/>
			<line class="st1" x1="72" y1="-30" x2="144.5" y2="-30"/>
			<line class="st1" x1="72" y1="-54" x2="144.5" y2="-54"/>
			<line class="st1" x1="72" y1="-18" x2="144.5" y2="-18"/>
			<line class="st1" x1="72" y1="-42" x2="144.5" y2="-42"/>
			<line class="st1" x1="72" y1="-66" x2="144.5" y2="-66"/>
		</g>
		<g>
			<line class="st1" x1="0" y1="-6" x2="72.5" y2="-6"/>
			<line class="st1" x1="0" y1="-30" x2="72.5" y2="-30"/>
			<line class="st1" x1="0" y1="-54" x2="72.5" y2="-54"/>
			<line class="st1" x1="0" y1="-18" x2="72.5" y2="-18"/>
			<line class="st1" x1="0" y1="-42" x2="72.5" y2="-42"/>
			<line class="st1" x1="0" y1="-66" x2="72.5" y2="-66"/>
		</g>
	</g>
</pattern>
<g>
	<polygon class="st2" points="475.19,270 517,178.96 394.65,178.96 359.38,270 	"/>
	<rect x="642.57" y="517" class="st2" width="156.43" height="64"/>
	<rect x="852" y="420.96" class="st2" width="87" height="157.04"/>
	<rect x="1183" y="181.24" class="st2" width="93.3" height="97.68"/>
	<polygon class="st2" points="1428.09,445.84 1335,445.84 1335,588 1601,588 1601,517.56 1428.09,517.56 	"/>
</g>
<g class="st3">
	<polygon class="st4" points="486.19,283 528,191.96 405.65,191.96 370.38,283 	"/>
	<rect x="653.57" y="530" class="st4" width="156.43" height="64"/>
	<rect x="863" y="433.96" class="st4" width="87" height="159.04"/>
	<rect x="1196" y="196.33" class="st4" width="91.3" height="95.59"/>
	<polygon class="st4" points="1439.09,458.84 1346,458.84 1346,601 1612,601 1612,530.56 1439.09,530.56 	"/>
</g>
<g>
	
		<pattern  id="SVGID_1_" xlink:href="#_x36__lpi_30_x25_" patternTransform="matrix(0.7071 -0.7071 0.7071 0.7071 2579.2429 -6956.5298)">
	</pattern>
	<path class="st5" d="M344.37,368.39l69.73-164.43h98.6L390.69,446.7v136.07h-92.62V446.7L176.3,203.96h98.08L344.37,368.39z"/>
	
		<pattern  id="SVGID_2_" xlink:href="#_x36__lpi_30_x25_" patternTransform="matrix(0.7071 -0.7071 0.7071 0.7071 2579.2429 -6956.5298)">
	</pattern>
	<path class="st6" d="M631.6,512.53h158.96v70.25H540.28V203.96h91.32V512.53z"/>
	
		<pattern  id="SVGID_3_" xlink:href="#_x36__lpi_30_x25_" patternTransform="matrix(0.7071 -0.7071 0.7071 0.7071 2579.2429 -6956.5298)">
	</pattern>
	<path class="st7" d="M926.38,582.77h-91.06V203.96h91.06V582.77z"/>
	
		<pattern  id="SVGID_4_" xlink:href="#_x36__lpi_30_x25_" patternTransform="matrix(0.7071 -0.7071 0.7071 0.7071 2579.2429 -6956.5298)">
	</pattern>
	<path class="st8" d="M1306.23,582.77h-90.8l-134.25-235.71v235.71h-91.32V203.96h91.32l133.99,235.72V203.96h91.06V582.77z"/>
	
		<pattern  id="SVGID_5_" xlink:href="#_x36__lpi_30_x25_" patternTransform="matrix(0.7071 -0.7071 0.7071 0.7071 2596.2781 -6932.873)">
	</pattern>
	<path class="st9" d="M1598.92,421.99H1455.3v90.54h169.63v70.25h-260.95V203.96h261.47v70.51H1455.3v79.87h143.62V421.99z"/>
</g>
</svg>
